<svg xmlns="http://www.w3.org/2000/svg" width="100" height="100" viewBox="0 0 1000 1000">
  <defs>
    <style>
      .cls-1, .cls-2 {
        fill-rule: evenodd;
      }

      .cls-1 {
        opacity: 0.15;
      }
    </style>
  </defs>
  <path id="Forma_5" data-name="Forma 5" class="cls-1" d="M5.656,500C5.762,220.012,243.876-4.353,518.375,5.375,779.52,14.629,995.586,233.006,995.688,500c0.1,267.137-216.033,485.741-477.313,495C243.74,1004.73,5.55,780.133,5.656,500Z"/>
  <path id="Forma_2" data-name="Forma 2" class="cls-2" d="M633.3,974.454c-4.5,24.721-291.678,62.206-481.485-126.431C62.724,759.475,3.528,630.857,5.893,489.6,8.2,351.725,69,207.371,192.226,111.614,380.888-35,623.224,5.018,626.9,29.969c2.168,14.73-92.715,25.711-172.132,90.4C333.292,219.3,287.3,371.222,284.772,489.638c-2.863,134.048,48.194,278.8,153.551,375.853C527.363,947.514,635.981,959.771,633.3,974.454Z"/>
</svg>
