<svg version="1.2" xmlns="http://www.w3.org/2000/svg" viewBox="0 0 68 74" width="68" height="74">
	<title>icons</title>
	<defs>
		<linearGradient id="g1" x1="41.3" y1="62.6" x2="51.2" y2="52.6" gradientUnits="userSpaceOnUse">
			<stop offset="0" stop-color="#d6f2fd"/>
			<stop offset="1" stop-color="#e5f5fd"/>
		</linearGradient>
		<linearGradient id="g2" x1="39" y1="28.9" x2="67.9" y2="0" gradientUnits="userSpaceOnUse">
			<stop offset="0" stop-color="#00ccff"/>
			<stop offset="1" stop-color="#5ddefe"/>
		</linearGradient>
		<linearGradient id="g3" x1="10.5" y1="44.9" x2="46.5" y2="8.9" gradientUnits="userSpaceOnUse">
			<stop offset="0" stop-color="#d6f2fd"/>
			<stop offset="1" stop-color="#e5f5fd"/>
		</linearGradient>
		<linearGradient id="g4" x1="14" y1="73.9" x2="34" y2="53.9" gradientUnits="userSpaceOnUse">
			<stop offset="0" stop-color="#d6f2fd"/>
			<stop offset="1" stop-color="#e5f5fd"/>
		</linearGradient>
	</defs>
	<style>
		.s0 { fill: url(#g1) } 
		.s1 { fill: url(#g2) } 
		.s2 { fill: url(#g3) } 
		.s3 { fill: #ffffff } 
		.s4 { fill: url(#g4) } 
	</style>
	<g id="icons">
		<g id="-e- blizzard_n">
			<circle id="blizzard" class="s0" cx="46.2" cy="57.6" r="5"/>
			<path id="moon-small" class="s1" d="m53.7 28.9c-8.1 0-14.7-6.6-14.7-14.7 0-6.5 4.3-12.4 10.6-14.2 0.3 0 0.6 0 0.8 0.2 0.2 0.2 0.3 0.5 0.2 0.8q-0.5 1.8-0.5 3.6c0 7.3 5.9 13.2 13.2 13.2q1.8 0 3.6-0.5c0.3-0.1 0.6 0 0.8 0.2 0.2 0.2 0.2 0.5 0.2 0.8-1.8 6.2-7.7 10.6-14.2 10.6z"/>
			<path id="cloud-large-night" class="s2" d="m13.3 44.9c-7.4 0-13.3-5.8-13.3-13 0-7.2 5.9-13.1 13.3-13.1q0.1 0 0.2 0.1c2.7-5.9 8.7-10 15.6-10 8.9 0 16.1 6.6 17.1 15q0 0 0.1 0c5.9 0 10.7 4.7 10.7 10.5 0 5.8-4.8 10.5-10.7 10.5"/>
			<path id="cloud-small" class="s3" d="m39.4 45c-4.7 0-8.4-3.8-8.4-8.4 0-4.6 3.7-8.3 8.4-8.3q0.1 0 0.1 0c1.7-3.7 5.5-6.3 9.9-6.3 5.6 0 10.1 4.2 10.7 9.5q0.1 0 0.1 0c3.7 0 6.8 3 6.8 6.7 0 3.8-3.1 6.8-6.8 6.8"/>
			<path id="snow-04" class="s4" d="m14 57.9c-1.1 0-2-0.9-2-2 0-1.1 0.9-2 2-2 1.1 0 2 0.9 2 2 0 1.1-0.9 2-2 2zm10 0c-1.1 0-2-0.9-2-2 0-1.1 0.9-2 2-2 1.1 0 2 0.9 2 2 0 1.1-0.9 2-2 2zm10 0c-1.1 0-2-0.9-2-2 0-1.1 0.9-2 2-2 1.1 0 2 0.9 2 2 0 1.1-0.9 2-2 2zm-20 16c-1.1 0-2-0.9-2-1.9 0-1.1 0.9-2 2-2 1.1 0 2 0.9 2 2 0 1-0.9 1.9-2 1.9zm10 0c-1.1 0-2-0.9-2-1.9 0-1.1 0.9-2 2-2 1.1 0 2 0.9 2 2 0 1-0.9 1.9-2 1.9zm-5-7.9c-1.1 0-2-0.9-2-1.9 0-1.1 0.9-2 2-2 1.1 0 2 0.9 2 2 0 1-0.9 1.9-2 1.9zm10 0c-1.1 0-2-0.9-2-1.9 0-1.1 0.9-2 2-2 1.1 0 2 0.9 2 2 0 1-0.9 1.9-2 1.9z"/>
		</g>
	</g>
</svg>