<svg version="1.2" xmlns="http://www.w3.org/2000/svg" viewBox="0 0 67 65" width="67" height="65">
	<title>icons</title>
	<defs>
		<linearGradient id="g1" x1="38.3" y1="53.6" x2="48.2" y2="43.6" gradientUnits="userSpaceOnUse">
			<stop offset="0" stop-color="#d6f2fd"/>
			<stop offset="1" stop-color="#e5f5fd"/>
		</linearGradient>
		<linearGradient id="g2" x1="37.5" y1="36" x2="60.5" y2="13" gradientUnits="userSpaceOnUse">
			<stop offset="0" stop-color="#d6f2fd"/>
			<stop offset="1" stop-color="#e5f5fd"/>
		</linearGradient>
		<linearGradient id="g3" x1="11" y1="64.9" x2="31" y2="44.9" gradientUnits="userSpaceOnUse">
			<stop offset="0" stop-color="#d6f2fd"/>
			<stop offset="1" stop-color="#e5f5fd"/>
		</linearGradient>
	</defs>
	<style>
		.s0 { fill: url(#g1) } 
		.s1 { fill: #ffffff } 
		.s2 { fill: url(#g2) } 
		.s3 { fill: url(#g3) } 
	</style>
	<g id="icons">
		<g id="-e- blizzard_d">
			<circle id="blizzard" class="s0" cx="43.2" cy="48.6" r="5"/>
			<path id="cloud-large" class="s1" d="m13.3 35.9c-7.4 0-13.3-5.8-13.3-13 0-7.2 5.9-13.1 13.3-13.1q0.1 0 0.2 0.1c2.7-5.9 8.7-10 15.6-10 8.9 0 16.1 6.6 17.1 15q0 0 0.1 0c5.9 0 10.7 4.7 10.7 10.5 0 5.8-4.8 10.5-10.7 10.5"/>
			<path id="cloud-small-dark" class="s2" d="m39.4 36c-4.7 0-8.4-3.8-8.4-8.4 0-4.6 3.7-8.3 8.4-8.3q0.1 0 0.1 0c1.7-3.7 5.5-6.3 9.9-6.3 5.6 0 10.1 4.2 10.7 9.5q0.1 0 0.1 0c3.7 0 6.8 3 6.8 6.7 0 3.8-3.1 6.8-6.8 6.8"/>
			<path id="snow-04" class="s3" d="m11 48.9c-1.1 0-2-0.9-2-2 0-1.1 0.9-2 2-2 1.1 0 2 0.9 2 2 0 1.1-0.9 2-2 2zm10 0c-1.1 0-2-0.9-2-2 0-1.1 0.9-2 2-2 1.1 0 2 0.9 2 2 0 1.1-0.9 2-2 2zm10 0c-1.1 0-2-0.9-2-2 0-1.1 0.9-2 2-2 1.1 0 2 0.9 2 2 0 1.1-0.9 2-2 2zm-20 16c-1.1 0-2-0.9-2-1.9 0-1.1 0.9-2 2-2 1.1 0 2 0.9 2 2 0 1-0.9 1.9-2 1.9zm10 0c-1.1 0-2-0.9-2-1.9 0-1.1 0.9-2 2-2 1.1 0 2 0.9 2 2 0 1-0.9 1.9-2 1.9zm-5-7.9c-1.1 0-2-0.9-2-1.9 0-1.1 0.9-2 2-2 1.1 0 2 0.9 2 2 0 1-0.9 1.9-2 1.9zm10 0c-1.1 0-2-0.9-2-1.9 0-1.1 0.9-2 2-2 1.1 0 2 0.9 2 2 0 1-0.9 1.9-2 1.9z"/>
		</g>
	</g>
</svg>