<svg version="1.2" xmlns="http://www.w3.org/2000/svg" viewBox="0 0 46 54" width="46" height="54">
	<title>icons</title>
	<defs>
		<linearGradient id="g1" x1="0" y1="53.9" x2="45.9" y2="8" gradientUnits="userSpaceOnUse">
			<stop offset="0" stop-color="#00ccff"/>
			<stop offset="1" stop-color="#5ddefe"/>
		</linearGradient>
		<linearGradient id="g2" x1="26.1" y1="8.1" x2="33.5" y2=".7" gradientUnits="userSpaceOnUse">
			<stop offset="0" stop-color="#ffbc27"/>
			<stop offset="1" stop-color="#fde252"/>
		</linearGradient>
		<linearGradient id="g3" x1="32.4" y1="24.6" x2="43.6" y2="13.4" gradientUnits="userSpaceOnUse">
			<stop offset="0" stop-color="#ffbc27"/>
			<stop offset="1" stop-color="#fde252"/>
		</linearGradient>
	</defs>
	<style>
		.s0 { fill: url(#g1) } 
		.s1 { fill: url(#g2) } 
		.s2 { fill: url(#g3) } 
	</style>
	<g id="icons">
		<g id="-e- clear_n">
			<path id="moon" class="s0" d="m23.4 53.9c-12.9 0-23.4-10.4-23.4-23.3 0-10.4 6.9-19.7 16.9-22.5 0.4-0.1 0.9 0 1.2 0.3 0.3 0.3 0.4 0.8 0.3 1.2q-0.8 2.9-0.8 5.8c0 11.5 9.4 20.9 20.9 20.9q2.9 0 5.8-0.8c0.4-0.1 0.9 0 1.2 0.3 0.3 0.3 0.4 0.8 0.3 1.2-2.8 10-12.1 16.9-22.4 16.9z"/>
			<path id="star-01" class="s1" d="m30.3 7.3c-0.2 1-0.7 1-1 0-0.3-1-1.4-2.1-2.4-2.4-1-0.3-1-0.7 0-1 1-0.3 2.1-1.4 2.4-2.4 0.3-1.1 0.8-1.1 1 0 0.3 1 1.4 2.1 2.4 2.4 1.1 0.3 1.1 0.7 0 1-1 0.3-2.1 1.4-2.4 2.4z"/>
			<path id="star-02" class="s2" d="m38.8 23.4c-0.5 1.6-1.2 1.6-1.6 0-0.4-1.6-2.1-3.2-3.6-3.7-1.6-0.4-1.6-1.1 0-1.5 1.5-0.4 3.2-2.1 3.6-3.7 0.4-1.5 1.1-1.5 1.6 0 0.4 1.6 2 3.3 3.6 3.7 1.6 0.4 1.6 1.1 0 1.5-1.6 0.5-3.2 2.1-3.6 3.7z"/>
		</g>
	</g>
</svg>