<svg version="1.2" xmlns="http://www.w3.org/2000/svg" viewBox="0 0 67 44" width="67" height="44">
	<title>icons</title>
	<defs>
		<linearGradient id="g1" x1="38" y1="28.9" x2="66.9" y2="0" gradientUnits="userSpaceOnUse">
			<stop offset="0" stop-color="#00ccff"/>
			<stop offset="1" stop-color="#5ddefe"/>
		</linearGradient>
		<linearGradient id="g2" x1="58.1" y1="8.1" x2="65.5" y2=".7" gradientUnits="userSpaceOnUse">
			<stop offset="0" stop-color="#ffbc27"/>
			<stop offset="1" stop-color="#fde252"/>
		</linearGradient>
		<linearGradient id="g3" x1="3.7" y1="10.6" x2="9.3" y2="4.9" gradientUnits="userSpaceOnUse">
			<stop offset="0" stop-color="#ffbc27"/>
			<stop offset="1" stop-color="#fde252"/>
		</linearGradient>
		<linearGradient id="g4" x1="10.5" y1="43.9" x2="46.5" y2="7.9" gradientUnits="userSpaceOnUse">
			<stop offset="0" stop-color="#d6f2fd"/>
			<stop offset="1" stop-color="#e5f5fd"/>
		</linearGradient>
	</defs>
	<style>
		.s0 { fill: url(#g1) } 
		.s1 { fill: url(#g2) } 
		.s2 { fill: url(#g3) } 
		.s3 { fill: url(#g4) } 
		.s4 { fill: #ffffff } 
	</style>
	<g id="icons">
		<g id="-e- partly_cloudy_n">
			<path id="moon-small" class="s0" d="m52.7 28.9c-8.1 0-14.7-6.6-14.7-14.7 0-6.5 4.3-12.4 10.6-14.2 0.3 0 0.6 0 0.8 0.2 0.2 0.2 0.3 0.5 0.2 0.8q-0.5 1.8-0.5 3.6c0 7.3 5.9 13.2 13.2 13.2q1.8 0 3.6-0.5c0.3-0.1 0.6 0 0.8 0.2 0.2 0.2 0.2 0.5 0.2 0.8-1.8 6.2-7.7 10.6-14.2 10.6z"/>
			<path id="star-01" class="s1" d="m62.3 7.3c-0.2 1-0.7 1-1 0-0.3-1-1.4-2.1-2.4-2.4-1-0.3-1-0.7 0-1 1-0.3 2.1-1.4 2.4-2.4 0.3-1.1 0.8-1.1 1 0 0.3 1 1.4 2.1 2.4 2.4 1.1 0.3 1.1 0.7 0 1-1 0.3-2.1 1.4-2.4 2.4z"/>
			<path id="star-03" class="s2" d="m6.9 10c-0.2 0.7-0.6 0.7-0.8 0-0.2-0.8-1-1.7-1.8-1.9-0.8-0.2-0.8-0.6 0-0.8 0.8-0.2 1.6-1 1.8-1.8 0.2-0.8 0.6-0.8 0.8 0 0.2 0.8 1 1.6 1.8 1.8 0.8 0.2 0.8 0.6 0 0.8-0.8 0.2-1.6 1.1-1.8 1.9z"/>
			<path id="cloud-large-night" class="s3" d="m13.3 43.9c-7.4 0-13.3-5.8-13.3-13 0-7.2 5.9-13.1 13.3-13.1q0.1 0 0.2 0.1c2.7-5.9 8.7-10 15.6-10 8.9 0 16.1 6.6 17.1 15q0 0 0.1 0c5.9 0 10.7 4.7 10.7 10.5 0 5.8-4.8 10.5-10.7 10.5"/>
			<path id="cloud-small" class="s4" d="m39.4 44c-4.7 0-8.4-3.8-8.4-8.4 0-4.6 3.7-8.3 8.4-8.3q0.1 0 0.1 0c1.7-3.7 5.5-6.3 9.9-6.3 5.6 0 10.1 4.2 10.7 9.5q0.1 0 0.1 0c3.7 0 6.8 3 6.8 6.7 0 3.8-3.1 6.8-6.8 6.8"/>
		</g>
	</g>
</svg>