<svg version="1.2" xmlns="http://www.w3.org/2000/svg" viewBox="0 0 67 42" width="67" height="42">
	<title>icons</title>
	<defs>
		<linearGradient id="g1" x1="36" y1="26" x2="62" y2="0" gradientUnits="userSpaceOnUse">
			<stop offset="0" stop-color="#ffbc27"/>
			<stop offset="1" stop-color="#fde252"/>
		</linearGradient>
		<linearGradient id="g2" x1="37.5" y1="42" x2="60.5" y2="19" gradientUnits="userSpaceOnUse">
			<stop offset="0" stop-color="#d6f2fd"/>
			<stop offset="1" stop-color="#e5f5fd"/>
		</linearGradient>
	</defs>
	<style>
		.s0 { fill: url(#g1) } 
		.s1 { fill: #ffffff } 
		.s2 { fill: url(#g2) } 
	</style>
	<g id="icons">
		<g id="-e- partly_cloudy_d">
			<circle id="sun-small" class="s0" cx="49" cy="13" r="13"/>
			<path id="cloud-large" class="s1" d="m13.3 41.9c-7.4 0-13.3-5.8-13.3-13 0-7.2 5.9-13.1 13.3-13.1q0.1 0 0.2 0.1c2.7-5.9 8.7-10 15.6-10 8.9 0 16.1 6.6 17.1 15q0 0 0.1 0c5.9 0 10.7 4.7 10.7 10.5 0 5.8-4.8 10.5-10.7 10.5"/>
			<path id="cloud-small-dark" class="s2" d="m39.4 42c-4.7 0-8.4-3.8-8.4-8.4 0-4.6 3.7-8.3 8.4-8.3q0.1 0 0.1 0c1.7-3.7 5.5-6.3 9.9-6.3 5.6 0 10.1 4.2 10.7 9.5q0.1 0 0.1 0c3.7 0 6.8 3 6.8 6.7 0 3.8-3.1 6.8-6.8 6.8"/>
		</g>
	</g>
</svg>