<svg version="1.2" xmlns="http://www.w3.org/2000/svg" viewBox="0 0 67 68" width="67" height="68">
	<title>icons</title>
	<defs>
		<linearGradient id="g1" x1="31.5" y1="65.2" x2="53.5" y2="43.2" gradientUnits="userSpaceOnUse">
			<stop offset="0" stop-color="#ffbc27"/>
			<stop offset="1" stop-color="#fde252"/>
		</linearGradient>
		<linearGradient id="g2" x1="38" y1="28.9" x2="66.9" y2="0" gradientUnits="userSpaceOnUse">
			<stop offset="0" stop-color="#00ccff"/>
			<stop offset="1" stop-color="#5ddefe"/>
		</linearGradient>
		<linearGradient id="g3" x1="10.5" y1="44.9" x2="46.5" y2="8.9" gradientUnits="userSpaceOnUse">
			<stop offset="0" stop-color="#d6f2fd"/>
			<stop offset="1" stop-color="#e5f5fd"/>
		</linearGradient>
		<linearGradient id="g4" x1="6" y1="67.7" x2="21.7" y2="52" gradientUnits="userSpaceOnUse">
			<stop offset="0" stop-color="#00ccff"/>
			<stop offset="1" stop-color="#5ddefe"/>
		</linearGradient>
	</defs>
	<style>
		.s0 { fill: url(#g1) } 
		.s1 { fill: url(#g2) } 
		.s2 { fill: url(#g3) } 
		.s3 { fill: #ffffff } 
		.s4 { fill: url(#g4) } 
	</style>
	<g id="icons">
		<g id="-e- rain_thunder_n">
			<path id="lightning" class="s0" d="m45.3 41c1.6 0 2.3 1.1 1.5 2.6l-2.9 5.1c-0.9 1.4-0.2 2.5 1.5 2.4l6.6-0.3c1.7-0.1 2 0.7 0.7 1.8l-17.4 14.3c-1.3 1-1.7 0.7-0.9-0.7l4.8-8.9c0.8-1.5 0.1-2.6-1.5-2.5l-4.4 0.4c-1.6 0.1-2.3-1-1.5-2.4l5.3-9.2c0.9-1.5 2.9-2.6 4.6-2.6z"/>
			<path id="moon-small" class="s1" d="m52.7 28.9c-8.1 0-14.7-6.6-14.7-14.7 0-6.5 4.3-12.4 10.6-14.2 0.3 0 0.6 0 0.8 0.2 0.2 0.2 0.3 0.5 0.2 0.8q-0.5 1.8-0.5 3.6c0 7.3 5.9 13.2 13.2 13.2q1.8 0 3.6-0.5c0.3-0.1 0.6 0 0.8 0.2 0.2 0.2 0.2 0.5 0.2 0.8-1.8 6.2-7.7 10.6-14.2 10.6z"/>
			<path id="cloud-large-night" class="s2" d="m13.3 44.9c-7.4 0-13.3-5.8-13.3-13 0-7.2 5.9-13.1 13.3-13.1q0.1 0 0.2 0.1c2.7-5.9 8.7-10 15.6-10 8.9 0 16.1 6.6 17.1 15q0 0 0.1 0c5.9 0 10.7 4.7 10.7 10.5 0 5.8-4.8 10.5-10.7 10.5"/>
			<path id="cloud-small" class="s3" d="m39.4 45c-4.7 0-8.4-3.8-8.4-8.4 0-4.6 3.7-8.3 8.4-8.3q0.1 0 0.1 0c1.7-3.7 5.5-6.3 9.9-6.3 5.6 0 10.1 4.2 10.7 9.5q0.1 0 0.1 0c3.7 0 6.8 3 6.8 6.7 0 3.8-3.1 6.8-6.8 6.8"/>
			<path id="rain-02" class="s4" d="m5.2 67.7q-0.5 0-1-0.3c-1-0.6-1.3-1.8-0.8-2.8l6.6-11.6c0.6-1 1.8-1.3 2.8-0.7 1 0.5 1.3 1.8 0.7 2.8l-6.5 11.5c-0.4 0.7-1.1 1.1-1.8 1.1zm10.8 0q-0.6 0-1-0.3c-1-0.6-1.3-1.8-0.8-2.8l6.6-11.6c0.6-1 1.8-1.3 2.8-0.7 0.9 0.5 1.3 1.8 0.7 2.8l-6.6 11.5c-0.4 0.7-1 1.1-1.7 1.1z"/>
		</g>
	</g>
</svg>